<svg id="Layer_1" data-name="Layer 1" xmlns="http://www.w3.org/2000/svg" viewBox="0 0 67.71 98.5">
<path class="cls-1" fill="#fff;" d="M1259.76,1738.77a6.16,6.16,0,0,0,1,3.4l3.28,4.94a6.16,6.16,0,0,0,5.13,2.75h11.87a6.14,6.14,0,0,0,5.12-2.75l3.29-4.94a6.15,6.15,0,0,0,1-3.4v-7.38h-30.78Zm-18.47-53.55a33.67,33.67,0,0,0,8.37,22.27c3.18,3.63,8.15,11.21,10,17.6,0,.05,0,.1,0,.15h30.83a.77.77,0,0,1,0-.15c1.89-6.39,6.86-14,10-17.6a33.85,33.85,0,1,0-59.33-22.27m33.85-15.39a15.42,15.42,0,0,0-15.39,15.39,3.08,3.08,0,1,1-6.15,0,21.56,21.56,0,0,1,21.54-21.54,3.08,3.08,0,1,1,0,6.15" transform="translate(-1241.29 -1651.36)"/></svg>