<svg id="Layer_1" data-name="Layer 1" xmlns="http://www.w3.org/2000/svg" viewBox="0 0 70 70">
<path class="cls-1" fill="#112646" d="M1303.5,1665.69h-55a7.5,7.5,0,0,0-7.5,7.5v55a7.5,7.5,0,0,0,7.5,7.5h55a7.5,7.5,0,0,0,7.5-7.5v-55a7.5,7.5,0,0,0-7.5-7.5m-2.56,48-2.35,10.16a2.34,2.34,0,0,1-2.28,1.82,45.32,45.32,0,0,1-45.31-45.31,2.47,2.47,0,0,1,1.82-2.29l10.15-2.34a2.39,2.39,0,0,1,.53-.06,2.55,2.55,0,0,1,2.16,1.42l4.68,10.94a2.61,2.61,0,0,1,.19.92,2.68,2.68,0,0,1-.86,1.81l-5.92,4.85a36.29,36.29,0,0,0,17.31,17.31l4.85-5.92a2.57,2.57,0,0,1,1.81-.86,2.61,2.61,0,0,1,.92.19l10.94,4.68a2.55,2.55,0,0,1,1.42,2.16,2.24,2.24,0,0,1-.06.52" transform="translate(-1241 -1665.69)"/></svg>