<svg id="Layer_1" data-name="Layer 1" xmlns="http://www.w3.org/2000/svg" viewBox="0 0 47.33 41.41"><defs><style>.cls-1{fill:#fff;}.cls-2{fill:#f1f0f0;}.cls-3{fill:#2057a7;}.cls-4{fill:#d81f2a;}</style></defs><path class="cls-1" d="M571.69,353.37c10.27,0,18.65-7.43,18.65-16.52s-8.38-16.52-18.65-16.52S553,327.75,553,336.85,561.42,353.37,571.69,353.37Zm5.54-2.79a15.08,15.08,0,0,0,2.47-4.05H584A16.74,16.74,0,0,1,577.23,350.58Zm8.41-6h-5.23a26.13,26.13,0,0,0,1.1-6.78h6.61a13.37,13.37,0,0,1-2.48,6.78Zm0-15.49a13.37,13.37,0,0,1,2.48,6.78h-6.61a26.13,26.13,0,0,0-1.1-6.78ZM584,327.17h-4.3a15.13,15.13,0,0,0-2.47-4.06A16.65,16.65,0,0,1,584,327.17Zm-11.21-4.74c2.14.64,3.68,2.9,4.56,4.74h-4.56Zm0,6.67h5.35a24.09,24.09,0,0,1,1.19,6.78h-6.54Zm0,8.71h6.54a24.09,24.09,0,0,1-1.19,6.78h-5.35Zm0,8.72h4.56c-.88,1.84-2.42,4.09-4.56,4.74Zm-13.4,0h4.29a14.86,14.86,0,0,0,2.48,4.05A16.74,16.74,0,0,1,559.39,346.53Zm11.21,4.74c-2.14-.65-3.68-2.9-4.56-4.74h4.56Zm0-6.68h-5.35a24.09,24.09,0,0,1-1.19-6.78h6.54Zm0-8.71h-6.54a24.09,24.09,0,0,1,1.19-6.78h5.35Zm0-13.45v4.74H566C566.92,325.33,568.46,323.07,570.6,322.43Zm-4.44.68a14.91,14.91,0,0,0-2.48,4.06h-4.29A16.65,16.65,0,0,1,566.16,323.11Zm-8.41,6H563a25.72,25.72,0,0,0-1.11,6.78h-6.61A13.39,13.39,0,0,1,557.75,329.1Zm-2.49,8.71h6.61a25.72,25.72,0,0,0,1.11,6.78h-5.23A13.39,13.39,0,0,1,555.26,337.81Z" transform="translate(-553.04 -311.96)"/><ellipse class="cls-1" cx="37.44" cy="8.76" rx="9.89" ry="8.76"/><ellipse class="cls-2" cx="37.9" cy="8.31" rx="8.42" ry="7.46"/><path class="cls-3" d="M584.26,315.72a7.1,7.1,0,0,0-1.45,2.6h4.38Z" transform="translate(-553.04 -311.96)"/><path class="cls-3" d="M599.07,318.32a7.1,7.1,0,0,0-1.45-2.6l-2.93,2.6Z" transform="translate(-553.04 -311.96)"/><path class="cls-3" d="M582.81,322.21a7.18,7.18,0,0,0,1.45,2.6l2.93-2.6Z" transform="translate(-553.04 -311.96)"/><path class="cls-3" d="M596.07,314.35a8.82,8.82,0,0,0-2.93-1.29v3.88Z" transform="translate(-553.04 -311.96)"/><path class="cls-3" d="M585.81,326.18a8.91,8.91,0,0,0,2.93,1.29v-3.88Z" transform="translate(-553.04 -311.96)"/><path class="cls-3" d="M588.74,313.06a8.91,8.91,0,0,0-2.93,1.29l2.93,2.59Z" transform="translate(-553.04 -311.96)"/><path class="cls-3" d="M593.14,327.47a8.82,8.82,0,0,0,2.93-1.29l-2.93-2.59v3.88Z" transform="translate(-553.04 -311.96)"/><path class="cls-3" d="M594.69,322.21l2.93,2.6a7.18,7.18,0,0,0,1.45-2.6Z" transform="translate(-553.04 -311.96)"/><path class="cls-4" d="M599.29,319.29H592v-6.42a8.68,8.68,0,0,0-2.2,0v6.42h-7.25a6.24,6.24,0,0,0-.07,1,6.37,6.37,0,0,0,.07,1h7.25v6.42a10.11,10.11,0,0,0,2.2,0v-6.42h7.25a6.37,6.37,0,0,0,.07-1A6.24,6.24,0,0,0,599.29,319.29Z" transform="translate(-553.04 -311.96)"/><path class="cls-4" d="M593.14,322.21h0l3.76,3.33c.17-.15.33-.31.49-.48l-3.22-2.85Z" transform="translate(-553.04 -311.96)"/><path class="cls-4" d="M588.74,322.21h0L585,325.54l.54.44,3.22-2.85v-.92Z" transform="translate(-553.04 -311.96)"/><path class="cls-4" d="M588.74,318.32h0L585,315c-.17.15-.33.31-.49.48l3.22,2.85Z" transform="translate(-553.04 -311.96)"/><path class="cls-4" d="M593.14,318.32h0L596.9,315l-.54-.44-3.22,2.85Z" transform="translate(-553.04 -311.96)"/></svg>