<svg id="Layer_1" data-name="Layer 1" xmlns="http://www.w3.org/2000/svg" viewBox="0 0 17.4 16.93"><defs><style>.cls-1{fill:#112646;}</style></defs><title>right-check</title><path class="cls-1" d="M1275,1705.87c.4-.69.78-1.28,1.1-1.92,1.72-3.44,3.45-6.87,5.12-10.33a2.89,2.89,0,0,1,2.51-1.61,3.11,3.11,0,0,1,.91,0c.46.09.53.24.33.67-1.12,2.35-2.2,4.73-3.39,7-1.07,2.1-2.24,4.16-3.41,6.22a5.26,5.26,0,0,1-2,2.21,7.18,7.18,0,0,1-1.74.66,2.24,2.24,0,0,1-2.23-.71,14.85,14.85,0,0,1-1.56-2c-1-1.6-1.87-3.25-2.82-4.88a.64.64,0,0,1,.17-.91,3.9,3.9,0,0,1,2.7-.91,1.09,1.09,0,0,1,.89.68c1,1.78,2.08,3.55,3.12,5.32.07.11.17.21.32.41" transform="translate(-1267.71 -1691.99)"/></svg>