<svg id="Layer_1" data-name="Layer 1" xmlns="http://www.w3.org/2000/svg" viewBox="0 0 22.08 14.46"><defs><style>.cls-1{fill:#989898;}</style></defs><path class="cls-1" d="M304.68,548.4c-3.48-.07-6.31-.81-8-2.59a2.88,2.88,0,0,1-.7-2.9c.68-2.66,4.67-4.54,9.44-4.58A9.25,9.25,0,0,1,311,540c3.19,2.11,2.39,5.61-.91,7.22A11.69,11.69,0,0,1,304.68,548.4Zm5.86-4.9a7.22,7.22,0,0,0-.44-1.39c-.82-1.52-3.35-2.48-5.92-2.28-2.75.21-5.21,1.59-5.69,3.14s.51,2.73,2.58,3.42a9.81,9.81,0,0,0,6.84,0A3.89,3.89,0,0,0,310.54,543.5Z" transform="translate(-295.83 -538.33)"/><path class="cls-1" d="M315.17,552.77a6.23,6.23,0,0,1-4.45-1.5,4.35,4.35,0,0,1-1.62-2.79c-.08-.62.51-.91,1.57-.72a19.31,19.31,0,0,1,3.23.8,21.73,21.73,0,0,1,3.18,1.51,1.23,1.23,0,0,1,0,2.33A4,4,0,0,1,315.17,552.77Z" transform="translate(-295.83 -538.33)"/><path class="cls-1" d="M301,544.51c-1,0-1.48-.32-1.36-.81a2.92,2.92,0,0,1,1.27-2,5.2,5.2,0,0,1,2.88-.87,1.21,1.21,0,0,1,1.15.43c.16.28,0,.54-.4.72a8.1,8.1,0,0,1-.87.3,1.9,1.9,0,0,0-1.34,1c-.11.28-.23.55-.36.82A.9.9,0,0,1,301,544.51Z" transform="translate(-295.83 -538.33)"/></svg>