<svg id="Layer_1" data-name="Layer 1" xmlns="http://www.w3.org/2000/svg" viewBox="0 0 73.71 71.4"><defs><style>.cls-1{fill:#112646;}</style></defs><title>why-1</title><path class="cls-1" d="M1313.17,1728.85l-2.08,0h-19.48v5.48h8.72V1737h-24.27v-2.71h8.72v-5.5h-21.54v-27c-1.47-.42-2.85-.73-4.17-1.21a4.64,4.64,0,0,1-2.91-3.16c-.88-2.8-1.83-5.59-2.77-8.46l.81,0c6-.13,11.94-.24,17.92-.39a2.28,2.28,0,0,0,1.17-.4q7.23-5.1,14.44-10.23c.23-.17.47-.33.78-.53.11.3.21.55.3.81.8,2.42,1.49,4.87,2.41,7.23a5.48,5.48,0,0,1-1,5.76c-.74.93-1.59,1.76-2.45,2.7.24,0,.46,0,.68,0h24a5.69,5.69,0,0,0,.71-.07Zm-45.46-5.09h41v-24.84h-29.46a4.75,4.75,0,0,0-1.11.22c-2.33.64-4.64,1.34-7,1.94-1.11.28-2.26.38-3.41.56Z" transform="translate(-1239.46 -1665.64)"/><path class="cls-1" d="M1249.18,1684.66c-.77-.16-1.28.41-1.9.54-.9.19-.68,1-.83,1.5h-7c.32-.3.47-.47.64-.61q12.27-10,24.57-20.08a1.79,1.79,0,0,1,1.09-.37q9.85.45,19.7.94l12.22.6.56,0c-.22.19-.35.34-.5.46-8.13,6.6-16.71,12.57-25.26,18.6a1.49,1.49,0,0,1-.77.29l-20.08.36-.31,0c.76-1,2.28-1.25,2.67-2.55l-.18-.2-3.66,2.2c.78,2.92,1.54,5.81,2.31,8.7.4,1.5.79,3,1.22,4.51a.9.9,0,0,1-.32,1,5.86,5.86,0,0,1-4.8,1.42c-.19,0-.41-.29-.5-.5a14,14,0,0,1-1-5.49c0-2.9.23-5.8.27-8.7a2.21,2.21,0,0,1,1.51-2.33.76.76,0,0,0,.23-.17s0,0,.06-.19m18.68-6.08a5.53,5.53,0,0,0,3.75-1.71,2,2,0,0,0,.61-2,1.92,1.92,0,0,0-1.64-1.23,5.5,5.5,0,0,0-4.28,1,2.43,2.43,0,0,0-1.29,2.51c.27.85,1.22,1.36,2.85,1.36m-18.08,14.54-.19,0,.94,6.63.71-.28c-.5-2.17-1-4.28-1.46-6.38" transform="translate(-1239.46 -1665.64)"/></svg>